<svg width="121" height="23" viewBox="0 0 121 23" fill="none" xmlns="http://www.w3.org/2000/svg">
<g id="Follow">
<g id="Fb">
<path id="Vector" fill-rule="evenodd" clip-rule="evenodd" d="M72.3555 11.5737C72.3555 5.62529 67.2061 0.802124 60.8555 0.802124C54.5048 0.802124 49.3555 5.62529 49.3555 11.5737C49.3555 16.9499 53.5602 21.4061 59.0586 22.215V14.6883H56.1379V11.5737H59.0586V9.20059C59.0586 6.50144 60.7759 5.00929 63.4024 5.00929C64.6607 5.00929 65.9771 5.21991 65.9771 5.21991V7.87097H64.5262C63.0985 7.87097 62.6518 8.70096 62.6518 9.55403V11.5737H65.841L65.3317 14.6883H62.6523V22.2159C68.1508 21.4076 72.3555 16.9513 72.3555 11.5737V11.5737Z" fill="#0152A8"/>
</g>
<g id="Insta">
<path id="Vector_2" d="M16.2397 2.58684C17.4685 2.59037 18.6459 3.06166 19.5148 3.89777C20.3837 4.73389 20.8734 5.8669 20.8771 7.04934V15.9734C20.8734 17.1558 20.3837 18.2888 19.5148 19.1249C18.6459 19.9611 17.4685 20.4324 16.2397 20.4359H6.96576C5.73696 20.4324 4.55954 19.9611 3.69064 19.1249C2.82175 18.2888 2.33198 17.1558 2.32831 15.9734V7.04934C2.33198 5.8669 2.82175 4.73389 3.69064 3.89777C4.55954 3.06166 5.73696 2.59037 6.96576 2.58684H16.2397V2.58684ZM16.2397 0.802124H6.96576C3.39502 0.802124 0.473633 3.6133 0.473633 7.04934V15.9734C0.473633 19.4094 3.39502 22.2206 6.96576 22.2206H16.2397C19.8104 22.2206 22.7318 19.4094 22.7318 15.9734V7.04934C22.7318 3.6133 19.8104 0.802124 16.2397 0.802124V0.802124Z" fill="#0152A8"/>
<path id="Vector_3" d="M17.6307 7.04975C17.3556 7.04975 17.0866 6.97124 16.8578 6.82414C16.6291 6.67705 16.4508 6.46798 16.3455 6.22337C16.2402 5.97877 16.2126 5.70961 16.2663 5.44993C16.32 5.19026 16.4525 4.95173 16.647 4.76452C16.8416 4.57731 17.0895 4.44981 17.3593 4.39816C17.6292 4.34651 17.9089 4.37302 18.1631 4.47434C18.4173 4.57566 18.6345 4.74723 18.7874 4.96738C18.9403 5.18752 19.0218 5.44633 19.0218 5.71109C19.0222 5.88699 18.9865 6.06124 18.9168 6.22382C18.847 6.3864 18.7445 6.53413 18.6153 6.65851C18.486 6.78289 18.3325 6.88148 18.1635 6.94862C17.9946 7.01576 17.8135 7.05012 17.6307 7.04975V7.04975ZM11.6026 7.94186C12.3364 7.94186 13.0536 8.15124 13.6637 8.5435C14.2738 8.93577 14.7493 9.49331 15.0301 10.1456C15.3109 10.7979 15.3843 11.5157 15.2412 12.2082C15.0981 12.9007 14.7447 13.5368 14.2259 14.0361C13.7071 14.5353 13.046 14.8753 12.3264 15.0131C11.6067 15.1508 10.8608 15.0801 10.1829 14.8099C9.50504 14.5397 8.92564 14.0822 8.51799 13.4951C8.11035 12.908 7.89277 12.2178 7.89277 11.5118C7.89382 10.5653 8.28502 9.65785 8.98052 8.98858C9.67603 8.31932 10.619 7.94288 11.6026 7.94186V7.94186ZM11.6026 6.15715C10.5021 6.15715 9.42622 6.47119 8.51114 7.05957C7.59605 7.64794 6.88283 8.48422 6.46166 9.46264C6.0405 10.4411 5.9303 11.5177 6.14501 12.5564C6.35972 13.5951 6.88969 14.5492 7.6679 15.2981C8.44612 16.0469 9.43762 16.5569 10.517 16.7635C11.5965 16.9701 12.7153 16.8641 13.7321 16.4588C14.7489 16.0535 15.6179 15.3672 16.2294 14.4866C16.8408 13.6061 17.1672 12.5708 17.1672 11.5118C17.1672 10.0916 16.5809 8.72967 15.5373 7.72548C14.4938 6.7213 13.0784 6.15715 11.6026 6.15715V6.15715Z" fill="#0152A8"/>
</g>
<g id="Twiter">
<path id="Vector_4" d="M120.827 4.83595C120.021 5.18566 119.169 5.41606 118.297 5.51986C119.213 4.98363 119.903 4.13174 120.235 3.12397C119.369 3.63023 118.422 3.98545 117.437 4.1744C117.022 3.73971 116.523 3.39391 115.97 3.158C115.417 2.9221 114.821 2.80102 114.22 2.80213C111.786 2.80213 109.816 4.74209 109.816 7.1335C109.814 7.46614 109.852 7.79779 109.93 8.12136C108.184 8.03959 106.475 7.59462 104.911 6.81491C103.347 6.03521 101.964 4.93794 100.849 3.59331C100.458 4.25223 100.251 5.00404 100.25 5.77017C100.25 7.27207 101.034 8.59964 102.218 9.37741C101.517 9.36078 100.83 9.17524 100.215 8.83655V8.89019C100.215 10.9911 101.736 12.7388 103.749 13.1366C103.37 13.2375 102.98 13.2886 102.589 13.2886C102.311 13.2891 102.033 13.2621 101.761 13.2082C102.32 14.9291 103.949 16.1807 105.878 16.2164C104.311 17.4237 102.386 18.0762 100.407 18.0714C100.055 18.0709 99.7044 18.05 99.3555 18.0089C101.369 19.2936 103.709 19.9732 106.098 19.9667C114.211 19.9667 118.643 13.3646 118.643 7.63861C118.643 7.45087 118.638 7.26313 118.629 7.07986C119.489 6.4684 120.233 5.70854 120.827 4.83595V4.83595Z" fill="#0152A8"/>
</g>
</g>
</svg>
